<?xml version="1.0" standalone="no"?>
<!DOCTYPE svg PUBLIC "-//W3C//DTD SVG 20010904//EN"
 "http://www.w3.org/TR/2001/REC-SVG-20010904/DTD/svg10.dtd">
<svg version="1.0" xmlns="http://www.w3.org/2000/svg"
 width="1024.000000pt" height="1024.000000pt" viewBox="0 0 1024.000000 1024.000000"
 preserveAspectRatio="xMidYMid meet">
<g transform="translate(0.000000,1024.000000) scale(0.100000,-0.100000)"
fill="#000000" stroke="none">
<path d="M1967 6683 c-4 -3 -7 -147 -7 -320 l0 -313 -185 0 -185 0 0 -135 0
-135 185 0 185 0 0 -812 c0 -816 6 -1003 35 -1111 50 -190 158 -296 352 -344
51 -13 111 -17 238 -17 94 1 183 4 198 8 l28 7 -3 135 -3 136 -150 1 c-142 2
-153 3 -207 30 -65 32 -110 85 -136 162 -15 45 -17 135 -20 928 l-3 877 251 0
250 0 0 135 0 135 -250 0 -250 0 0 320 0 320 -158 0 c-87 0 -162 -3 -165 -7z"/>
<path d="M7637 6683 c-4 -3 -7 -147 -7 -320 l0 -313 -185 0 -185 0 0 -135 0
-135 185 0 185 0 0 -812 c0 -816 6 -1003 35 -1111 50 -190 158 -296 352 -344
51 -13 111 -17 238 -17 94 1 183 4 198 8 l28 7 -3 135 -3 136 -150 1 c-142 2
-153 3 -207 30 -65 32 -110 85 -136 162 -15 45 -17 135 -20 928 l-3 877 251 0
250 0 0 135 0 135 -250 0 -250 0 0 320 0 320 -158 0 c-87 0 -162 -3 -165 -7z"/>
<path d="M4040 6044 c0 -3 191 -278 424 -612 232 -334 429 -616 436 -628 11
-18 -27 -76 -429 -652 -242 -348 -441 -634 -441 -637 0 -3 82 -4 182 -3 l181
3 342 508 c188 280 346 512 351 517 5 5 156 -212 354 -510 l345 -519 183 -1
c100 0 182 3 182 6 0 3 -196 293 -435 645 l-436 638 441 621 c242 342 440 623
440 626 0 2 -82 4 -182 4 l-183 0 -343 -505 c-189 -278 -347 -505 -350 -505
-4 0 -163 227 -352 505 l-345 505 -182 0 c-101 0 -183 -3 -183 -6z"/>
</g>
</svg>
